<svg xmlns="http://www.w3.org/2000/svg" viewBox="0 0 256 136" role="img" aria-label="DishGuru">
  <g fill="none" stroke="#ffffff" stroke-linecap="round" stroke-linejoin="round" stroke-width="4">
    <path d="M94 16c-10 0-18 8-18 18 0 12 14 23 16 24 1 1 3 1 4 0 2-1 16-12 16-24 0-10-8-18-18-18z"/>
    <circle cx="94" cy="34" r="7"/>
    <path d="M70 80l24-34"/>
    <path d="M118 80L94 46"/>
    <path d="M112 44v16"/>
    <path d="M118 44v16"/>
    <path d="M124 44v16"/>
    <path d="M64 58h13"/>
    <path d="M56 88c6-6 16-6 22 0 6-6 16-6 22 0 6-6 16-6 22 0"/>
  </g>
  <text x="128" y="118" text-anchor="middle" font-family="Space Grotesk, Arial, sans-serif" font-size="26" letter-spacing="3" fill="#ffffff">DISHGURU</text>
</svg>
